<?xml version="1.0" encoding="UTF-8"?>
<!DOCTYPE svg PUBLIC "-//W3C//DTD SVG 1.1//EN" "http://www.w3.org/Graphics/SVG/1.1/DTD/svg11.dtd">
<!-- Creator: CorelDRAW 2018 (64-Bit) -->
<svg xmlns="http://www.w3.org/2000/svg" xml:space="preserve" width="2480px" height="3508px" version="1.1" style="shape-rendering:geometricPrecision; text-rendering:geometricPrecision; image-rendering:optimizeQuality; fill-rule:evenodd; clip-rule:evenodd"
viewBox="0 0 2480 3507.43"
 xmlns:xlink="http://www.w3.org/1999/xlink">
 <defs>
  <style type="text/css">
   <![CDATA[
    .fil0 {fill:black}
   ]]>
  </style>
 </defs>
 <g id="Слой_x0020_1">
  <metadata id="CorelCorpID_0Corel-Layer"/>
  <path class="fil0" d="M2243.87 1838.34c-40.28,-35.21 -93.91,-54.65 -150.89,-54.65 -56.99,0 -110.56,19.39 -150.89,54.65l-251 219.38c-9.31,8.14 -21.36,13.11 -34.34,14.19 -32.16,-68.2 -108.9,-115.16 -197.22,-115.16l-242.68 0c-77.92,-58.71 -176.38,-90.8 -280.06,-90.8 -128.18,0 -248.46,49.36 -330.42,135.5l-373.09 326.09c-38.47,33.63 -59.68,78.33 -59.68,125.87 0,47.55 21.21,92.25 59.68,125.88l215.78 188.6c38.32,33.49 90.19,52.16 144.02,52.16 4.55,0 9.15,-0.14 13.75,-0.41 58.69,-3.48 112.73,-28.92 148.36,-69.78l187.6 -215.45c3.11,-3.57 8.02,-5.7 13.14,-5.7l705.63 0c60.71,0 117.8,-20.65 160.72,-58.17l421.54 -368.44c40.28,-35.21 62.51,-82.07 62.51,-131.88 0,-49.81 -22.18,-96.63 -62.51,-131.88l0.05 0zm-91.43 183.86l-421.54 368.44c-18.51,16.18 -43.12,25.08 -69.29,25.08l-705.63 0c-45.25,0 -88.58,18.8 -115.99,50.26l-187.6 215.45c-13.19,15.14 -32.48,24.23 -54.2,25.49 -21.77,1.27 -42.24,-5.42 -57.65,-18.89l-215.79 -188.6c-14.07,-12.3 -21.82,-28.61 -21.82,-46.02 0,-17.4 7.76,-33.71 21.82,-46.01l375.26 -327.99c1.5,-1.31 2.95,-2.71 4.29,-4.16 57.35,-61.24 142.1,-96.35 232.54,-96.35 78.86,0 153.32,26.53 209.79,74.71 12.1,10.3 28.29,16.09 45.14,16.09l267.81 0c42.87,0 78.76,28.02 83.56,65.17 0.21,1.45 0.47,2.89 0.78,4.29 -0.1,1.36 -0.21,2.67 -0.21,4.03 0,40.54 -37.75,73.49 -84.08,73.49l-462.54 0c-35.68,0 -64.64,25.31 -64.64,56.49 0,31.19 28.96,56.5 64.64,56.5l462.54 0c101.46,0 186.52,-62.24 208.03,-145.26 43.44,-3.3 83.72,-19.62 114.9,-46.87l251 -219.39c15.88,-13.87 37.03,-21.51 59.47,-21.51 22.44,0 43.59,7.64 59.47,21.51 15.87,13.88 24.61,32.36 24.61,51.98 0,19.62 -8.74,38.1 -24.61,51.98l-0.06 0.09zm-1243.83 -611.65c0,0 0.47,0.41 0.72,0.59 44.84,36.25 67.8,93.33 62.99,156.69l0 1.77c0,0.63 -0.11,1.31 -0.11,1.94l0 89.58c0,74.98 69.81,135.95 155.55,135.95l224.57 0c85.79,0 155.55,-61.01 155.55,-135.95l0 -89.58c0,-0.68 -0.11,-1.31 -0.11,-1.99 0,-0.58 0,-1.22 0,-1.8 -4.86,-63.1 18.41,-120.45 63.82,-157.33 0.25,-0.18 0.51,-0.41 0.72,-0.59 95.3,-79.91 147.79,-187.47 147.79,-302.86 0,-115.39 -50.78,-219.29 -142.98,-298.79 -90.55,-78.06 -210,-120.86 -337,-120.86 -2.27,0 -4.6,0 -6.87,0 -263.16,3.21 -475.48,193.03 -473.26,423.17 1.09,114.39 53.89,220.92 148.67,300.02l-0.05 0.04zm469.99 250.57c0,12.66 -11.79,22.96 -26.27,22.96l-224.57 0c-14.48,0 -26.27,-10.3 -26.27,-22.96l0 -33.08 277.17 0 0 33.08 -0.06 0zm-143.6 -860.72l5.07 0c92.82,0 180.11,31.27 246.3,88.31 67.37,58.08 104.5,135.64 104.5,218.35 0,82.71 -38.26,162.66 -107.71,221.01 -58.23,47.45 -94.22,113.58 -103.11,187.02l-75.34 0 0 -299.02c47.83,-10.17 91.73,-31.59 127.46,-62.78 25.24,-22.05 25.24,-57.85 0,-79.9 -25.23,-22.06 -66.18,-22.06 -91.42,0 -26.89,23.5 -62.67,36.47 -100.68,36.47 -38,0 -73.79,-12.93 -100.68,-36.47 -25.23,-22.06 -66.19,-22.06 -91.42,0 -25.23,22.05 -25.23,57.85 0,79.9 35.73,31.23 79.64,52.61 127.47,62.78l0 299.02 -75.35 0c-8.84,-73.58 -44.62,-139.52 -102.49,-186.53 -69.03,-57.76 -107.5,-135.5 -108.33,-218.93 -1.6,-168.17 153.53,-306.88 345.79,-309.23l-0.06 0zm556.46 210.52c-17.84,-27.02 -7.24,-61.55 23.68,-77.19l159.84 -80.63c30.92,-15.6 70.42,-6.33 88.32,20.7 17.84,27.02 7.24,61.55 -23.69,77.19l-159.83 80.63c-10.19,5.15 -21.31,7.6 -32.27,7.6 -22.34,0 -44.06,-10.13 -56.05,-28.25l0 -0.05zm0 192.18c17.84,-27.03 57.4,-36.29 88.32,-20.7l159.83 80.63c30.93,15.59 41.53,50.17 23.69,77.2 -12,18.12 -33.72,28.24 -56.06,28.24 -10.96,0 -22.08,-2.44 -32.26,-7.59l-159.84 -80.63c-30.92,-15.59 -41.52,-50.17 -23.68,-77.2l0 0.05zm-1374.61 137.13c-17.84,-27.03 -7.24,-61.56 23.68,-77.2l159.84 -80.63c30.92,-15.59 70.43,-6.33 88.32,20.7 17.89,27.03 7.24,61.56 -23.69,77.2l-159.83 80.63c-10.19,5.15 -21.31,7.59 -32.27,7.59 -22.34,0 -44.06,-10.13 -56.05,-28.25l0 -0.04zm0 -466.48c17.84,-27.03 57.34,-36.29 88.32,-20.7l159.83 80.63c30.93,15.6 41.53,50.17 23.69,77.2 -12,18.12 -33.72,28.25 -56.05,28.25 -10.97,0 -22.09,-2.45 -32.27,-7.6l-159.84 -80.63c-30.92,-15.59 -41.52,-50.17 -23.68,-77.19l0 0.04z"/>
 </g>
</svg>
