<?xml version="1.0" encoding="UTF-8"?>
<!DOCTYPE svg PUBLIC "-//W3C//DTD SVG 1.1//EN" "http://www.w3.org/Graphics/SVG/1.1/DTD/svg11.dtd">
<!-- Creator: CorelDRAW 2018 (64-Bit) -->
<svg xmlns="http://www.w3.org/2000/svg" xml:space="preserve" width="2480px" height="3508px" version="1.1" style="shape-rendering:geometricPrecision; text-rendering:geometricPrecision; image-rendering:optimizeQuality; fill-rule:evenodd; clip-rule:evenodd"
viewBox="0 0 2480 3507.43"
 xmlns:xlink="http://www.w3.org/1999/xlink">
 <defs>
  <style type="text/css">
   <![CDATA[
    .fil0 {fill:black}
   ]]>
  </style>
 </defs>
 <g id="Слой_x0020_1">
  <metadata id="CorelCorpID_0Corel-Layer"/>
  <path class="fil0" d="M1711.46 1415.3c32.55,32.55 32.55,85.31 0,117.84l-558.98 558.99c-32.55,32.53 -85.29,32.53 -117.84,0l-266.1 -266.11c-32.54,-32.53 -32.54,-85.29 0,-117.82 32.54,-32.55 85.3,-32.55 117.83,0l207.18 207.18 500.07 -500.08c32.55,-32.53 85.31,-32.53 117.84,0l0 0zm595.07 338.41c0,589.53 -477.09,1066.54 -1066.53,1066.54 -589.52,0 -1066.53,-477.09 -1066.53,-1066.54 0,-589.52 477.09,-1066.53 1066.53,-1066.53 589.52,0 1066.53,477.09 1066.53,1066.53zm-166.64 0c0,-497.41 -402.54,-899.88 -899.89,-899.88 -497.41,0 -899.89,402.54 -899.89,899.88 0,497.42 402.54,899.89 899.89,899.89 497.41,0 899.89,-402.54 899.89,-899.89zm0 0z"/>
 </g>
</svg>
