<?xml version="1.0" encoding="UTF-8"?>
<!DOCTYPE svg PUBLIC "-//W3C//DTD SVG 1.1//EN" "http://www.w3.org/Graphics/SVG/1.1/DTD/svg11.dtd">
<!-- Creator: CorelDRAW 2018 (64-Bit) -->
<svg xmlns="http://www.w3.org/2000/svg" xml:space="preserve" width="2480px" height="3508px" version="1.1" style="shape-rendering:geometricPrecision; text-rendering:geometricPrecision; image-rendering:optimizeQuality; fill-rule:evenodd; clip-rule:evenodd"
viewBox="0 0 2480 3507.43"
 xmlns:xlink="http://www.w3.org/1999/xlink">
 <defs>
  <style type="text/css">
   <![CDATA[
    .fil0 {fill:black}
   ]]>
  </style>
 </defs>
 <g id="Слой_x0020_1">
  <metadata id="CorelCorpID_0Corel-Layer"/>
  <g id="_2063215428912">
   <path class="fil0" d="M1240 687.35c-588,0 -1066.36,478.36 -1066.36,1066.36 0,48.08 38.97,87.05 87.05,87.05 48.07,0 87.05,-38.97 87.05,-87.05 0,-491.98 400.28,-892.26 892.26,-892.26 491.98,0 892.26,400.28 892.26,892.26 0,491.99 -400.28,892.27 -892.26,892.27 -48.07,0 -87.05,38.97 -87.05,87.05 0,48.07 38.98,87.05 87.05,87.05 588,0 1066.36,-478.36 1066.36,-1066.37 0,-588 -478.36,-1066.36 -1066.36,-1066.36z"/>
   <path class="fil0" d="M1240 1311.22c-48.07,0 -87.05,38.97 -87.05,87.05l0 355.45c0,23.09 9.18,45.22 25.51,61.56l417.12 417.13c16.97,16.99 39.28,25.48 61.54,25.48 22.26,0 44.57,-8.51 61.55,-25.48 34.01,-34.02 34.01,-89.12 0,-123.11l-391.62 -391.64 0 -319.39c0,-48.07 -38.98,-87.05 -87.05,-87.05l0 0z"/>
   <path class="fil0" d="M949.84 2645.98l-689.15 0c-48.08,0 -87.05,38.97 -87.05,87.05 0,48.07 38.97,87.05 87.05,87.05l689.15 0c48.07,0 87.05,-38.98 87.05,-87.05 0,-48.08 -38.98,-87.05 -87.05,-87.05z"/>
   <path class="fil0" d="M732.22 2319.54l-471.53 0c-48.08,0 -87.05,38.98 -87.05,87.05 0,48.07 38.97,87.05 87.05,87.05l471.53 0c48.07,0 87.05,-38.98 87.05,-87.05 0,-48.07 -38.98,-87.05 -87.05,-87.05z"/>
   <path class="fil0" d="M514.59 1993.1l-253.9 0c-48.08,0 -87.05,38.98 -87.05,87.05 0,48.08 38.97,87.05 87.05,87.05l253.9 0c48.07,0 87.05,-38.97 87.05,-87.05 0,-48.07 -38.98,-87.05 -87.05,-87.05z"/>
  </g>
 </g>
</svg>
