<?xml version="1.0" encoding="UTF-8"?>
<!DOCTYPE svg PUBLIC "-//W3C//DTD SVG 1.1//EN" "http://www.w3.org/Graphics/SVG/1.1/DTD/svg11.dtd">
<!-- Creator: CorelDRAW 2018 (64-Bit) -->
<svg xmlns="http://www.w3.org/2000/svg" xml:space="preserve" width="2480px" height="3508px" version="1.1" style="shape-rendering:geometricPrecision; text-rendering:geometricPrecision; image-rendering:optimizeQuality; fill-rule:evenodd; clip-rule:evenodd"
viewBox="0 0 2480 3507.43"
 xmlns:xlink="http://www.w3.org/1999/xlink"
 enable-background="new 0 0 512 512">
 <defs>
  <style type="text/css">
   <![CDATA[
    .fil0 {fill:black}
   ]]>
  </style>
 </defs>
 <g id="Слой_x0020_1">
  <metadata id="CorelCorpID_0Corel-Layer"/>
  <g id="_1814715594512">
   <circle class="fil0" cx="1240" cy="1761.62" r="42.91"/>
   <circle class="fil0" cx="1874.06" cy="1127.57" r="41.65"/>
   <path class="fil0" d="M2263.46 1718.71l-84.4 0c-7.42,-165.94 -57.81,-325.36 -146.92,-463.48 -12.85,-19.91 -39.41,-25.65 -59.33,-12.79 -19.92,12.85 -25.64,39.41 -12.79,59.32 81.38,126.14 126.08,266.21 133.18,416.94l-154.65 0c-21.34,-351 -302.52,-632.94 -653.21,-655.48l0 -154.77c154.79,7.11 291.27,51.12 415.95,134 19.73,13.12 46.37,7.75 59.49,-11.99 13.13,-19.74 7.76,-46.37 -11.98,-59.49 -139.16,-92.5 -291.19,-141.22 -463.46,-148.42l0 -92.29c0,-23.7 -19.22,-42.91 -42.92,-42.91 -23.69,0 -42.91,19.21 -42.91,42.91l0 92.22c-235.9,9.93 -456.25,106.45 -624.22,274.43 -167.4,167.4 -263.85,386.81 -274.34,621.8l-84.41 0c-23.69,0 -42.91,19.21 -42.91,42.91 0,23.7 19.22,42.91 42.91,42.91l84.4 0c10.49,234.99 106.94,454.41 274.34,621.81 167.97,167.97 388.32,264.49 624.22,274.42l0 76.4c0,23.71 19.21,42.92 42.91,42.92 23.7,0 42.91,-19.22 42.91,-42.92l0 -76.57c234.08,-11.04 452.56,-107.43 619.39,-274.25 167.4,-167.4 263.85,-386.82 274.34,-621.81l84.4 0c23.69,0 42.91,-19.21 42.91,-42.91 0.01,-23.7 -19.2,-42.91 -42.9,-42.91l0 0zm-1063.96 -429.14l-56.77 0c-23.7,0 -42.91,19.21 -42.91,42.91 0,23.7 19.21,42.91 42.91,42.91l56.77 0 0 158.64c-94.27,16.73 -168.94,90.74 -186.66,184.67l-159.07 0 0 -54.35c0,-23.7 -19.21,-42.91 -42.91,-42.91 -23.7,0 -42.91,19.21 -42.91,42.91l0 54.35 -140.5 0c21.18,-305.27 266.46,-549.79 572.05,-569.78l0 140.65zm40.5 617.44c-80.16,0 -145.38,-65.22 -145.38,-145.39 0,-80.16 65.22,-145.38 145.38,-145.38 80.17,0 145.39,65.22 145.39,145.38 0,80.17 -65.22,145.39 -145.39,145.39zm-472.06 -102.47l0 54.36c0,23.7 19.22,42.91 42.92,42.91 23.69,0 42.91,-19.21 42.91,-42.91l0 -54.36 159.07 0c17.72,93.93 92.39,167.94 186.66,184.67l0 158.64 -56.77 0c-23.7,0 -42.91,19.21 -42.91,42.91 0,23.7 19.21,42.91 42.91,42.91l56.77 0.01 0 140.64c-305.59,-19.99 -550.87,-264.51 -572.05,-569.78l140.49 -0.01 0 0.01zm517.4 429.14l51.94 0c23.69,0 42.91,-19.21 42.91,-42.91 0,-23.7 -19.22,-42.91 -42.91,-42.91l-51.94 -0.01 0 -159.5c91.99,-18.37 164.41,-91.48 181.82,-183.81l159.07 0 0 54.36c0,23.7 19.22,42.91 42.91,42.91 23.7,0 42.92,-19.21 42.92,-42.91l0 -54.36 140.49 0c-21.06,303.66 -263.87,547.24 -567.21,569.48l0 -140.34zm567.21 -514.97l-140.49 0 0 -54.36c0,-23.7 -19.22,-42.91 -42.91,-42.91 -23.7,0 -42.92,19.21 -42.92,42.91l0 54.36 -159.07 0c-17.41,-92.33 -89.84,-165.45 -181.83,-183.81l0 -159.5 51.94 0c23.7,0 42.92,-19.22 42.92,-42.92 0,-23.7 -19.22,-42.91 -42.92,-42.91l-51.93 0 0 -140.34c303.34,22.24 546.14,265.81 567.21,569.48zm-653.05 -810.32l0 154.53c-352.94,20.24 -636.61,303.17 -658.05,655.78l-154.6 0c21.77,-437.74 374.59,-789.77 812.65,-810.31zm-812.65 896.15l154.6 0c21.44,352.62 305.11,635.55 658.05,655.78l0 154.54c-438.06,-20.55 -790.89,-372.58 -812.65,-810.32zm898.49 810.1l0 -154.62c350.69,-22.54 631.87,-304.48 653.21,-655.48l154.6 0c-21.68,436.13 -372,787.2 -807.81,810.1z"/>
  </g>
 </g>
</svg>
