<?xml version="1.0" encoding="UTF-8"?>
<!DOCTYPE svg PUBLIC "-//W3C//DTD SVG 1.1//EN" "http://www.w3.org/Graphics/SVG/1.1/DTD/svg11.dtd">
<!-- Creator: CorelDRAW 2018 (64-Bit) -->
<svg xmlns="http://www.w3.org/2000/svg" xml:space="preserve" width="2480px" height="3508px" version="1.1" style="shape-rendering:geometricPrecision; text-rendering:geometricPrecision; image-rendering:optimizeQuality; fill-rule:evenodd; clip-rule:evenodd"
viewBox="0 0 2480 3507.43"
 xmlns:xlink="http://www.w3.org/1999/xlink">
 <defs>
  <style type="text/css">
   <![CDATA[
    .fil0 {fill:black}
   ]]>
  </style>
 </defs>
 <g id="Слой_x0020_1">
  <metadata id="CorelCorpID_0Corel-Layer"/>
  <path class="fil0" d="M524.52 2003.18c-121.26,-333.25 -158.74,-700.85 -170.14,-894.2 328.49,-69.55 558.36,-133.22 886.31,-249.41 330.05,117.13 554.95,181.68 879.86,249.03 -20.42,196.51 -73.36,563.73 -201.15,896.44 -73.27,190.78 -166.82,358.42 -282.63,475.91 -112.4,114.03 -240.38,176.45 -396.08,176.45 -349.11,0 -573.37,-261.74 -716.17,-654.22l0 0zm-283.05 -1039.32c372.35,-76.55 605.89,-140 966.72,-269.06 20.88,-7.47 44.14,-7.47 65.01,0 365.94,130.9 593.37,195.15 962.77,268.79 42.69,8.51 72.61,43.26 69.26,83.46 -27.88,334.74 -198.17,1774.87 -1064.54,1774.87 -948.62,0 -1055.78,-1450.78 -1067.88,-1778.53 -1.43,-38.67 27.75,-71.11 68.66,-79.53l0 0zm705.76 697.28c-34.8,-32.12 -91.23,-32.12 -126.03,0 -34.8,32.12 -34.8,84.21 0,116.33l215.15 198.6c69.61,64.26 182.46,64.26 252.07,0l346.59 -319.92c34.8,-32.13 34.8,-84.22 0,-116.34 -34.81,-32.12 -91.23,-32.12 -126.04,0l-346.59 319.93 -215.15 -198.6z"/>
 </g>
</svg>
