<?xml version="1.0" encoding="UTF-8"?>
<!DOCTYPE svg PUBLIC "-//W3C//DTD SVG 1.1//EN" "http://www.w3.org/Graphics/SVG/1.1/DTD/svg11.dtd">
<!-- Creator: CorelDRAW 2018 (64-Bit) -->
<svg xmlns="http://www.w3.org/2000/svg" xml:space="preserve" width="2480px" height="3508px" version="1.1" style="shape-rendering:geometricPrecision; text-rendering:geometricPrecision; image-rendering:optimizeQuality; fill-rule:evenodd; clip-rule:evenodd"
viewBox="0 0 2480 3507.43"
 xmlns:xlink="http://www.w3.org/1999/xlink"
 enable-background="new 0 0 512 512">
 <defs>
  <style type="text/css">
   <![CDATA[
    .fil0 {fill:black}
   ]]>
  </style>
 </defs>
 <g id="Слой_x0020_1">
  <metadata id="CorelCorpID_0Corel-Layer"/>
  <g id="_1816714055776">
   <path class="fil0" d="M1965.39 1361.57c-32.54,-32.54 -85.29,-32.54 -117.82,0l-548.66 548.66c-32.49,32.48 -85.34,32.48 -117.82,0l-548.66 -548.66c-32.54,-32.54 -85.29,-32.54 -117.82,0 -32.53,32.53 -32.54,85.28 0,117.81l548.66 548.67c48.73,48.72 112.73,73.08 176.73,73.08 64,0 128,-24.36 176.73,-73.08l548.66 -548.67c32.53,-32.53 32.53,-85.28 0,-117.81z"/>
   <path class="fil0" d="M1918.07 2061.71c-0.49,-0.51 -0.98,-1.02 -1.49,-1.52 -47.2,-47.21 -109.97,-73.21 -176.72,-73.21 -137.81,0 -249.93,112.12 -249.93,249.93 0,45.94 -37.37,83.31 -83.31,83.31l-333.24 0c-45.93,0 -83.31,-37.37 -83.31,-83.31 0,-137.81 -112.12,-249.93 -249.93,-249.93 -66.75,0 -129.52,26 -176.72,73.2 -0.51,0.51 -317.4,334.06 -317.4,334.06 -46.69,47.11 -72.39,109.53 -72.39,175.91 0,137.81 112.12,249.93 249.93,249.93l1632.87 0c137.82,0 249.93,-112.12 249.93,-249.93 0,-66.38 -25.69,-128.8 -72.38,-175.91l-315.91 -332.53zm138.36 591.75l-1632.86 0c-45.94,0 -83.32,-37.37 -83.32,-83.31 0,-22.26 8.67,-43.17 24.4,-58.9 0.51,-0.51 317.22,-333.87 317.22,-333.87 15.66,-15.34 36.32,-23.78 58.27,-23.78 45.94,0 83.31,37.37 83.31,83.31 0,137.81 112.12,249.93 249.93,249.93l333.24 0c137.81,0 249.93,-112.12 249.93,-249.93 0,-45.94 37.37,-83.31 83.31,-83.31 21.95,0 42.61,8.44 58.27,23.78 0,0 316.71,333.35 317.21,333.85 15.74,15.74 24.41,36.66 24.41,58.92 0,45.94 -37.38,83.31 -83.32,83.31l0 0z"/>
   <path class="fil0" d="M1240 853.97c46.01,0 83.31,-37.3 83.31,-83.31 0,-46.01 -37.3,-83.31 -83.31,-83.31l-499.86 0c-46.01,0 -83.31,37.3 -83.31,83.31 0,46.01 37.3,83.31 83.31,83.31l83.31 0 0 233.27c0,108.6 69.66,201.2 166.62,235.6l0 124.01c0,76.34 34.19,147.47 93.8,195.17l104.09 83.27c15.21,12.17 33.62,18.26 52.04,18.26 18.42,0 36.83,-6.09 52.04,-18.26l104.09 -83.27c59.61,-47.69 93.8,-118.83 93.8,-195.17l0 -124.01c96.96,-34.39 166.62,-127 166.62,-235.6l0 -233.27 83.31 0c46.01,0 83.31,-37.3 83.31,-83.31 0,-46.01 -37.3,-83.31 -83.31,-83.31l-166.62 0c-46.01,0 -83.31,37.3 -83.31,83.31l0 316.58c0,45.93 -37.37,83.31 -83.31,83.31l-333.24 0c-45.93,0 -83.31,-37.38 -83.31,-83.31l0 -233.27 249.93 0zm52.04 657.94l-52.04 41.64 -52.04 -41.64c-19.87,-15.9 -31.27,-39.61 -31.27,-65.06l0 -109.68 166.62 0 0 109.69c0,25.44 -11.4,49.15 -31.27,65.05l0 0z"/>
  </g>
 </g>
</svg>
