<?xml version="1.0" encoding="UTF-8"?>
<!DOCTYPE svg PUBLIC "-//W3C//DTD SVG 1.1//EN" "http://www.w3.org/Graphics/SVG/1.1/DTD/svg11.dtd">
<!-- Creator: CorelDRAW 2018 (64-Bit) -->
<svg xmlns="http://www.w3.org/2000/svg" xml:space="preserve" width="2480px" height="3508px" version="1.1" style="shape-rendering:geometricPrecision; text-rendering:geometricPrecision; image-rendering:optimizeQuality; fill-rule:evenodd; clip-rule:evenodd"
viewBox="0 0 2480 3507.43"
 xmlns:xlink="http://www.w3.org/1999/xlink"
 enable-background="new 0 0 512 512">
 <defs>
  <style type="text/css">
   <![CDATA[
    .fil0 {fill:black}
   ]]>
  </style>
 </defs>
 <g id="Слой_x0020_1">
  <metadata id="CorelCorpID_0Corel-Layer"/>
  <g id="_1814868729904">
   <path class="fil0" d="M1177.52 1191.37l-499.86 0 0 499.86 -504.02 0 0 1128.85 1128.84 0 0 -504.03 499.86 0.01 0 -499.86 504.02 0 0 -1128.85 -1128.84 0 0 504.02zm1003.88 36.45l-379.06 375.93 0 -324.02 379.06 -379.06 0 327.15zm-467.42 -36.45l-324.01 0 375.92 -379.06 327.15 0 -379.06 379.06zm-536.46 624.83l0 211.31 -187.45 -93.73 -249.93 124.97 -249.7 -124.85 -191.84 94.35 0 -212.05 878.92 0zm-878.92 351.31l191.38 -94.12 250.16 125.08 249.93 -124.97 187.45 93.73 0 235.17 -187.45 -93.72 -249.93 124.97 -249.7 -124.86 -191.84 94.35 0 -235.63zm0 527.6l0 -152.71 191.38 -94.12 250.16 125.08 249.93 -124.96 187.45 93.72 0 152.99 -878.92 0zm1378.78 -504.02l-374.9 0 0 -499.86 -499.86 0 0 -374.89 874.76 0 0 874.75zm214.22 -499.86l289.8 -287.41 0 287.41 -289.8 0zm-301.71 -878.92l-287.41 289.81 0 -289.81 287.41 0z"/>
   <polygon class="fil0" points="927.59,1441.3 1052.55,1441.3 1052.55,1566.27 927.59,1566.27 "/>
   <polygon class="fil0" points="1177.52,1441.3 1302.48,1441.3 1302.48,1566.27 1177.52,1566.27 "/>
   <polygon class="fil0" points="1427.45,1441.3 1552.41,1441.3 1552.41,1566.27 1427.45,1566.27 "/>
   <polygon class="fil0" points="1427.45,1691.23 1552.41,1691.23 1552.41,1816.2 1427.45,1816.2 "/>
   <polygon class="fil0" points="1427.45,1941.16 1552.41,1941.16 1552.41,2066.13 1427.45,2066.13 "/>
  </g>
 </g>
</svg>
