<?xml version="1.0" encoding="UTF-8"?>
<!DOCTYPE svg PUBLIC "-//W3C//DTD SVG 1.1//EN" "http://www.w3.org/Graphics/SVG/1.1/DTD/svg11.dtd">
<!-- Creator: CorelDRAW 2018 (64-Bit) -->
<svg xmlns="http://www.w3.org/2000/svg" xml:space="preserve" width="2480px" height="3508px" version="1.1" style="shape-rendering:geometricPrecision; text-rendering:geometricPrecision; image-rendering:optimizeQuality; fill-rule:evenodd; clip-rule:evenodd"
viewBox="0 0 2480 3507.43"
 xmlns:xlink="http://www.w3.org/1999/xlink"
 enable-background="new 0 0 511.516 511.516">
 <defs>
  <style type="text/css">
   <![CDATA[
    .fil0 {fill:black}
   ]]>
  </style>
 </defs>
 <g id="Слой_x0020_1">
  <metadata id="CorelCorpID_0Corel-Layer"/>
  <path class="fil0" d="M2604.48 2183.98l-211.14 -402.3c-10.31,-19.66 -34.61,-27.22 -54.25,-16.9 -19.65,10.31 -27.22,34.6 -16.91,54.25l195.82 373.1 -535.59 201.97 0 -1222.46 260.19 495.75c10.3,19.65 34.6,27.21 54.25,16.9 19.65,-10.31 27.22,-34.6 16.9,-54.25l-326.18 -621.52c-8.88,-16.91 -26.25,-27.42 -45.35,-27.42 -19.1,0 -36.47,10.51 -45.34,27.41l-437.19 833.02 -316.57 -161.52c-13.05,-6.67 -28.63,-6.67 -41.63,-0.02l-253.53 129.36 0 -510.41c0,-94.74 -83.04,-180.89 -222.12,-230.46 -20.9,-7.44 -43.89,3.46 -51.34,24.36 -7.46,20.9 3.45,43.89 24.36,51.34 104.08,37.1 168.73,96.4 168.73,154.76 0,45.93 -40.04,93.08 -109.85,129.37 -79.18,41.17 -185.34,63.83 -298.93,63.83 -113.59,0 -219.76,-22.66 -298.93,-63.83 -69.82,-36.29 -109.86,-83.45 -109.86,-129.37 0,-45.93 40.04,-93.09 109.86,-129.38 79.17,-41.17 185.34,-63.83 298.93,-63.83 26.9,0 54.17,1.36 81.05,4.04 22.06,2.2 41.77,-13.92 43.98,-36 2.2,-22.08 -13.92,-41.77 -36,-43.98 -29.52,-2.94 -59.48,-4.43 -89.03,-4.43 -274.29,-0.01 -489.16,120.17 -489.16,273.58l0 832.48c0,153.41 214.87,273.58 489.16,273.58 34.68,0 69.05,-2.11 102.77,-6.05l0 287.18c0,17.25 9.54,32.86 24.97,40.77l134.31 68.52c19.76,10.07 43.97,2.24 54.06,-17.53 10.09,-19.76 2.23,-43.96 -17.53,-54.05l-115.44 -58.9 0 -568.24 537.62 274.3 0 568.23 -269.36 -137.43c-19.76,-10.08 -43.97,-2.24 -54.06,17.53 -10.09,19.77 -2.24,43.97 17.53,54.06l327.78 167.23c6.53,3.34 13.69,5.01 20.85,5.01 7.15,0 14.29,-1.67 20.79,-4.99l614.97 -313.76c15.38,-7.87 24.94,-23.49 24.94,-40.76l0 -251.02 141.19 53.25c5.81,2.18 11.91,3.27 18.02,3.27 6.12,0 12.24,-1.1 18.08,-3.29l616.92 -232.64c13.72,-5.17 24.58,-16 29.79,-29.71 5.21,-13.7 4.29,-29.01 -2.53,-42l0 0zm-1482.19 -424.37l532.1 271.48 -532.1 271.48 -532.11 -271.48 532.11 -271.48zm-660.71 274.91l0 283.44c-33.59,4.34 -67.98,6.67 -102.77,6.67 -113.59,0 -219.76,-22.66 -298.94,-63.83 -69.81,-36.29 -109.85,-83.44 -109.85,-129.38l0 -680.28c86.76,73.67 235.97,121.38 408.79,121.38 172.81,0 322.02,-47.71 408.78,-121.38l0 399.22 -281.03 143.38c-15.41,7.85 -24.98,23.48 -24.98,40.78zm698.35 907.3l0 -568.23 542.7 -276.89 0 568.24 -542.7 276.88zm598.1 -948.08l-226.74 -115.68 370.75 -706.44 0 1222.48 -119.04 -44.89 0 -314.69c0.01,-17.32 -9.59,-32.95 -24.97,-40.78z"/>
 </g>
</svg>
