<?xml version="1.0" encoding="UTF-8"?>
<!DOCTYPE svg PUBLIC "-//W3C//DTD SVG 1.1//EN" "http://www.w3.org/Graphics/SVG/1.1/DTD/svg11.dtd">
<!-- Creator: CorelDRAW 2018 (64-Bit) -->
<svg xmlns="http://www.w3.org/2000/svg" xml:space="preserve" width="210mm" height="297mm" version="1.1" style="shape-rendering:geometricPrecision; text-rendering:geometricPrecision; image-rendering:optimizeQuality; fill-rule:evenodd; clip-rule:evenodd"
viewBox="0 0 21000 29700"
 xmlns:xlink="http://www.w3.org/1999/xlink">
 <defs>
  <style type="text/css">
   <![CDATA[
    .fil0 {fill:#FEFEFE}
   ]]>
  </style>
 </defs>
 <g id="Слой_x0020_1">
  <metadata id="CorelCorpID_0Corel-Layer"/>
  <path class="fil0" d="M10677.77 23881.11c-59.81,0 -119.61,0 -179.83,-0.28 -1415.8,3.45 -2723.97,-32.52 -3996.17,-109.97 -1166.37,-70.97 -2231.04,-474.05 -3079.09,-1165.54 -818.28,-667.25 -1377.07,-1569.45 -1660.81,-2681.25 -246.94,-967.93 -260.04,-1918.09 -272.58,-2837.1 -9.1,-659.39 -18.47,-1440.74 -20.39,-2235.32 1.93,-797.88 11.3,-1579.23 20.39,-2238.62 12.54,-918.88 25.63,-1869.03 272.58,-2837.1 283.74,-1111.8 842.53,-2014 1660.81,-2681.25 848.04,-691.5 1912.72,-1094.58 3079.23,-1165.54 1272.2,-77.31 2580.65,-113.41 3999.48,-109.97 1416.21,-3.03 2723.97,32.66 3996.17,109.97 1166.37,70.97 2231.04,474.05 3079.09,1165.54 818.42,667.25 1377.07,1569.45 1660.81,2681.25 246.94,967.93 260.04,1918.23 272.58,2837.1 9.1,659.39 18.6,1440.74 20.39,2235.32l0 3.31c-1.79,794.58 -11.3,1575.92 -20.39,2235.32 -12.54,918.88 -25.49,1869.03 -272.58,2837.1 -283.74,1111.8 -842.39,2014 -1660.81,2681.25 -848.04,691.5 -1912.72,1094.58 -3079.09,1165.54 -1218.32,74.14 -2469.86,110.24 -3819.78,110.24l-0.01 0zm-179.84 -1411.39c1392.78,3.31 2671.6,-31.83 3913.9,-107.35 881.94,-53.61 1646.62,-339.82 2273.07,-850.66 579.05,-472.25 977.86,-1123.79 1185.25,-1936.56 205.6,-805.74 217.45,-1670.87 228.89,-2507.48 8.96,-654.98 18.33,-1430.82 20.26,-2217.68 -1.93,-787 -11.3,-1562.69 -20.26,-2217.68 -11.44,-836.61 -23.29,-1701.74 -228.89,-2507.62 -207.39,-812.77 -606.2,-1464.3 -1185.25,-1936.56 -626.46,-510.7 -1391.13,-796.92 -2273.07,-850.52 -1242.3,-75.65 -2521.12,-110.52 -3910.6,-107.49 -1392.51,-3.31 -2671.46,31.83 -3913.77,107.49 -881.94,53.61 -1646.62,339.82 -2273.07,850.52 -579.05,472.25 -977.86,1123.79 -1185.25,1936.56 -205.6,805.88 -217.45,1670.87 -228.89,2507.62 -8.96,655.53 -18.33,1431.78 -20.26,2219.33 1.93,784.1 11.3,1560.49 20.26,2216.02 11.44,836.61 23.29,1701.74 228.89,2507.48 207.39,812.77 606.2,1464.3 1185.25,1936.56 626.46,510.7 1391.13,796.92 2273.07,850.52 1242.3,75.65 2521.53,110.93 3910.46,107.49l0.01 0.01zm-33.62 -3210c-2431.41,0 -4409.72,-1978.17 -4409.72,-4409.72 0,-2431.55 1978.31,-4409.72 4409.72,-4409.72 2431.55,0 4409.72,1978.17 4409.72,4409.72 0,2431.55 -1978.17,4409.72 -4409.72,4409.72zm0 -7408.33c-1653.37,0 -2998.61,1345.24 -2998.61,2998.61 0,1653.37 1345.24,2998.61 2998.61,2998.61 1653.51,0 2998.61,-1345.24 2998.61,-2998.61 0,-1653.37 -1345.1,-2998.61 -2998.61,-2998.61zm4903.61 -2822.22c-584.43,0 -1058.33,473.77 -1058.33,1058.33 0,584.56 473.91,1058.33 1058.33,1058.33 584.56,0 1058.33,-473.77 1058.33,-1058.33 0,-584.56 -473.77,-1058.33 -1058.33,-1058.33zm0 0z"/>
 </g>
</svg>
