<?xml version="1.0" encoding="UTF-8"?>
<!DOCTYPE svg PUBLIC "-//W3C//DTD SVG 1.1//EN" "http://www.w3.org/Graphics/SVG/1.1/DTD/svg11.dtd">
<!-- Creator: CorelDRAW 2018 (64-Bit) -->
<svg xmlns="http://www.w3.org/2000/svg" xml:space="preserve" width="210mm" height="297mm" version="1.1" style="shape-rendering:geometricPrecision; text-rendering:geometricPrecision; image-rendering:optimizeQuality; fill-rule:evenodd; clip-rule:evenodd"
viewBox="0 0 21000 29700"
 xmlns:xlink="http://www.w3.org/1999/xlink">
 <defs>
  <style type="text/css">
   <![CDATA[
    .fil0 {fill:#FEFEFE}
   ]]>
  </style>
 </defs>
 <g id="Слой_x0020_1">
  <metadata id="CorelCorpID_0Corel-Layer"/>
  <g id="_2220017469616">
   <g>
    <path class="fil0" d="M14005.85 18224.97c2234.65,-3506.55 1953.74,-3069.08 2018.13,-3160.5 813.59,-1147.53 1243.6,-2498.14 1243.6,-3905.88 0,-3733.24 -3029.46,-6808.59 -6767.58,-6808.59 -3725.94,0 -6767.58,3069.28 -6767.58,6808.59 0,1406.84 439.03,2792.79 1279.28,3955.79l1982.37 3110.63c-2119.49,325.71 -5722.59,1296.34 -5722.59,3433.58 0,779.09 508.51,1889.38 2931.06,2754.57 1691.57,604.12 3928.03,936.84 6297.46,936.84 4430.71,0 9228.52,-1249.83 9228.52,-3691.41 0,-2137.61 -3598.88,-3107.22 -5722.67,-3433.62zm-7966.34 -3787.38c-6.77,-10.58 -13.82,-20.92 -21.21,-31.09 -699.19,-961.9 -1055.41,-2101.89 -1055.41,-3247.91 0,-3076.91 2477.59,-5578.13 5537.11,-5578.13 3053.16,0 5537.11,2502.32 5537.11,5578.13 0,1147.86 -349.49,2249.17 -1010.87,3185.72 -59.27,78.18 249.95,-402.2 -4526.24,7092.34l-4460.49 -6999.06zm4460.49 9681.94c-4839.6,0 -7998.05,-1422.54 -7998.05,-2460.94 0,-697.92 1622.91,-1845.5 5219.16,-2292.81l2260.04 3546.33c112.96,177.27 308.6,284.57 518.81,284.57 210.21,0 405.89,-107.34 518.81,-284.57l2260 -3546.33c3596.33,447.32 5219.28,1594.89 5219.28,2292.81 0,1029.58 -3130.03,2460.94 -7998.05,2460.94z"/>
   </g>
  </g>
  <g id="_2220017469328">
   <g>
    <path class="fil0" d="M10500 8082.42c-1696.2,0 -3076.17,1379.97 -3076.17,3076.17 0,1696.2 1379.97,3076.17 3076.17,3076.17 1696.2,0 3076.17,-1379.97 3076.17,-3076.17 0,-1696.2 -1379.97,-3076.17 -3076.17,-3076.17zm0 4921.88c-1017.72,0 -1845.7,-827.98 -1845.7,-1845.7 0,-1017.72 827.98,-1845.7 1845.7,-1845.7 1017.72,0 1845.7,827.98 1845.7,1845.7 0,1017.72 -827.98,1845.7 -1845.7,1845.7z"/>
   </g>
  </g>
  <g id="_2220017469392">
  </g>
  <g id="_2220016604592">
  </g>
  <g id="_2220016149616">
  </g>
  <g id="_2220006712560">
  </g>
  <g id="_2220006711536">
  </g>
  <g id="_2220007102320">
  </g>
  <g id="_2220007101200">
  </g>
  <g id="_2220007096784">
  </g>
  <g id="_2220007103728">
  </g>
  <g id="_2220007104368">
  </g>
  <g id="_2220017176960">
  </g>
  <g id="_2220017176640">
  </g>
  <g id="_2220017176448">
  </g>
  <g id="_2220017176480">
  </g>
  <g id="_2220017172608">
  </g>
 </g>
</svg>
