<?xml version="1.0" encoding="utf-8"?>
<!-- Generator: Adobe Illustrator 24.3.0, SVG Export Plug-In . SVG Version: 6.00 Build 0)  -->
<svg version="1.1" id="Слой_1" xmlns="http://www.w3.org/2000/svg" xmlns:xlink="http://www.w3.org/1999/xlink" x="0px" y="0px"
	 viewBox="0 0 599 600" style="enable-background:new 0 0 599 600;" xml:space="preserve">
<style type="text/css">
	.st0{fill:#FFFFFF;}
	.st1{fill:#FFFFFF;stroke:#CC1517;stroke-miterlimit:10;}
	.st2{font-family:'ArialMT';}
	.st3{font-size:72px;}
	.st4{display:none;}
</style>
<g id="Слой_2_1_">
	<g>
		<polygon class="st0" points="77,168 149.7,168 162,197 193,104 238,212 287,82 287,140.1 238,248 193,140 162,213 150,172 77,172 
					"/>
		<path class="st1" d="M181,179"/>
		<polygon class="st0" points="497,168 424.3,168 412,197 381,104 336,212 287,82 287,140.1 336,248 381,140 412,213 424,172 
			497,172 		"/>
	</g>
	<g>
		<polygon class="st0" points="497,394 424.3,394 412,365 381,458 336,350 287,480 287,421.9 336,314 381,422 412,349 424,390 
			497,390 		"/>
		<path class="st1" d="M393,383"/>
		<polygon class="st0" points="77,394 149.7,394 162,365 193,458 238,350 287,480 287,421.9 238,314 193,422 162,349 150,390 
			77,390 		"/>
	</g>
	<text transform="matrix(1 0 0 1 171.6733 303.8979)" class="st0 st2 st3">КВАНТ</text>
</g>
<g id="Слой_1_1_" class="st4">
	
		<image style="display:inline;overflow:visible;enable-background:new    ;" width="162" height="167" xlink:href="E91F5F1B.png"  transform="matrix(3 0 0 3 48 42)">
	</image>
</g>
</svg>
