<?xml version="1.0" encoding="UTF-8"?>
<!DOCTYPE svg PUBLIC "-//W3C//DTD SVG 1.1//EN" "http://www.w3.org/Graphics/SVG/1.1/DTD/svg11.dtd">
<!-- Creator: CorelDRAW 2018 (64-Bit) -->
<svg xmlns="http://www.w3.org/2000/svg" xml:space="preserve" width="210mm" height="297mm" version="1.1" style="shape-rendering:geometricPrecision; text-rendering:geometricPrecision; image-rendering:optimizeQuality; fill-rule:evenodd; clip-rule:evenodd"
viewBox="0 0 21000 29700"
 xmlns:xlink="http://www.w3.org/1999/xlink">
 <defs>
  <style type="text/css">
   <![CDATA[
    .fil0 {fill:#FEFEFE}
   ]]>
  </style>
 </defs>
 <g id="Слой_x0020_1">
  <metadata id="CorelCorpID_0Corel-Layer"/>
  <g id="_2220018062896">
   <g>
    <path class="fil0" d="M19154.3 7467.19l-17308.6 0c-1019.77,0 -1845.7,831.06 -1845.7,1845.7l0 11074.22c0,1020.67 832,1845.7 1845.7,1845.7l17308.6 0c1011.24,0 1845.7,-821.54 1845.7,-1845.7l0 -11074.22c0,-1012.84 -822.65,-1845.7 -1845.7,-1845.7zm-258.48 1230.47c-377.1,375.09 -6866.63,6830.46 -7090.7,7053.33 -348.63,348.63 -812.11,540.59 -1305.12,540.59 -493.01,0 -956.48,-191.99 -1306.27,-541.73 -150.69,-149.92 -6568.61,-6534 -7089.55,-7052.19l16791.64 0zm-17665.35 11439.01l0 -10572.56 5317.18 5289.17 -5317.18 5283.39zm874.49 865.67l5315.09 -5281.29 904.76 900.01c581.03,581.03 1353.52,900.99 2175.18,900.99 821.67,0 1594.15,-319.96 2174.03,-899.84l905.91 -901.15 5315.11 5281.28 -16790.08 0zm17664.57 -865.67l-5317.18 -5283.39 5317.18 -5289.17 0 10572.56z"/>
   </g>
  </g>
  <g id="_2220018062064">
  </g>
  <g id="_2220018062512">
  </g>
  <g id="_2220018061392">
  </g>
  <g id="_2220018061168">
  </g>
  <g id="_2220018059088">
  </g>
  <g id="_2220018060528">
  </g>
  <g id="_2220018060144">
  </g>
  <g id="_2220018059312">
  </g>
  <g id="_2220018060048">
  </g>
  <g id="_2220018060592">
  </g>
  <g id="_2220018057424">
  </g>
  <g id="_2220018057328">
  </g>
  <g id="_2220018057104">
  </g>
  <g id="_2220018057840">
  </g>
  <g id="_2220018057200">
  </g>
 </g>
</svg>
