<?xml version="1.0" encoding="UTF-8"?>
<!DOCTYPE svg PUBLIC "-//W3C//DTD SVG 1.1//EN" "http://www.w3.org/Graphics/SVG/1.1/DTD/svg11.dtd">
<!-- Creator: CorelDRAW 2018 (64-Bit) -->
<svg xmlns="http://www.w3.org/2000/svg" xml:space="preserve" width="210mm" height="297mm" version="1.1" style="shape-rendering:geometricPrecision; text-rendering:geometricPrecision; image-rendering:optimizeQuality; fill-rule:evenodd; clip-rule:evenodd"
viewBox="0 0 21000 29700"
 xmlns:xlink="http://www.w3.org/1999/xlink">
 <defs>
  <style type="text/css">
   <![CDATA[
    .fil0 {fill:#FEFEFE}
   ]]>
  </style>
 </defs>
 <g id="Слой_x0020_1">
  <metadata id="CorelCorpID_0Corel-Layer"/>
  <g id="_2220173280064">
   <g>
    <path class="fil0" d="M16596.62 17358.75c-429.92,-447.65 -948.49,-686.99 -1498.08,-686.99 -545.16,0 -1068.16,234.91 -1515.81,682.56l-1400.57 1396.14c-115.24,-62.05 -230.47,-119.67 -341.28,-177.29 -159.56,-79.78 -310.25,-155.13 -438.79,-234.91 -1311.93,-833.25 -2504.19,-1919.14 -3647.7,-3324.15 -554.02,-700.29 -926.33,-1289.77 -1196.69,-1888.11 363.44,-332.41 700.29,-678.13 1028.27,-1010.54 124.1,-124.1 248.2,-252.64 372.3,-376.74 930.76,-930.76 930.76,-2136.32 0,-3067.08l-1209.99 -1209.99c-137.4,-137.4 -279.23,-279.23 -412.19,-421.06 -265.93,-274.8 -545.16,-558.46 -833.25,-824.39 -429.92,-425.49 -944.06,-651.53 -1484.78,-651.53 -540.72,0 -1063.73,226.04 -1506.95,651.53 -4.43,4.43 -4.43,4.43 -8.86,8.86l-1506.95 1520.24c-567.32,567.32 -890.87,1258.74 -961.79,2060.97 -106.37,1294.2 274.8,2499.76 567.32,3288.69 718.02,1936.87 1790.61,3731.91 3390.63,5655.48 1941.3,2318.04 4277.07,4148.53 6945.25,5438.3 1019.4,483.11 2380.09,1054.86 3900.33,1152.37 93.08,4.43 190.58,8.86 279.23,8.86 1023.84,0 1883.68,-367.87 2557.38,-1099.18 4.43,-8.86 13.3,-13.3 17.73,-22.16 230.47,-279.23 496.41,-531.86 775.63,-802.23 190.58,-181.72 385.6,-372.3 576.19,-571.75 438.79,-456.52 669.26,-988.38 669.26,-1533.54 0,-549.59 -234.91,-1077.02 -682.56,-1520.24l-2433.28 -2442.12zm1586.72 4667.1c-4.43,0 -4.43,4.44 0,0 -172.86,186.15 -350.14,354.58 -540.73,540.73 -288.09,274.8 -580.62,562.89 -855.41,886.44 -447.65,478.68 -975.08,704.72 -1666.5,704.72 -66.48,0 -137.4,0 -203.88,-4.43 -1316.36,-84.21 -2539.65,-598.35 -3457.11,-1037.13 -2508.62,-1214.42 -4711.42,-2938.54 -6541.92,-5123.62 -1511.38,-1821.63 -2521.92,-3505.87 -3191.18,-5314.2 -412.19,-1103.62 -562.89,-1963.46 -496.41,-2774.55 44.32,-518.57 243.77,-948.49 611.64,-1316.36l1511.38 -1511.38c217.18,-203.88 447.65,-314.69 673.69,-314.69 279.23,0 505.27,168.42 647.1,310.25 4.43,4.43 8.86,8.86 13.3,13.3 270.36,252.64 527.43,514.13 797.79,793.36 137.4,141.83 279.23,283.66 421.06,429.92l1209.99 1209.99c469.81,469.81 469.81,904.17 0,1373.98 -128.53,128.53 -252.64,257.07 -381.17,381.17 -372.3,381.17 -726.88,735.74 -1112.48,1081.46 -8.86,8.86 -17.73,13.3 -22.16,22.16 -381.17,381.17 -310.25,753.47 -230.47,1006.11 4.43,13.3 8.86,26.59 13.3,39.89 314.69,762.34 757.91,1480.35 1431.6,2335.77l4.43 4.43c1223.29,1506.95 2513.05,2681.48 3935.79,3581.21 181.72,115.24 367.87,208.31 545.16,296.96 159.56,79.78 310.25,155.13 438.79,234.91 17.73,8.86 35.46,22.16 53.19,31.03 150.69,75.35 292.52,110.8 438.79,110.8 367.87,0 598.35,-230.47 673.69,-305.82l1515.81 -1515.81c150.69,-150.69 390.03,-332.41 669.26,-332.41 274.8,0 500.84,172.86 638.24,323.55 4.43,4.43 4.43,4.43 8.86,8.86l2442.14 2442.14c456.5,452.07 456.5,917.45 4.42,1387.26z"/>
    <path class="fil0" d="M11348.9 9345.35c1161.23,195.02 2216.1,744.61 3058.21,1586.73 842.11,842.12 1387.28,1896.98 1586.73,3058.21 48.75,292.52 301.39,496.41 589.48,496.41 35.46,0 66.48,-4.43 101.94,-8.86 327.98,-53.19 545.16,-363.44 491.97,-691.42 -239.34,-1405.01 -904.17,-2685.91 -1919.14,-3700.88 -1014.97,-1014.97 -2295.88,-1679.8 -3700.88,-1919.14 -327.98,-53.19 -633.8,163.99 -691.42,487.54 -57.62,323.55 155.13,638.22 483.11,691.41z"/>
    <path class="fil0" d="M20975.62 13613.55c-394.47,-2313.61 -1484.78,-4418.9 -3160.15,-6094.27 -1675.37,-1675.37 -3780.66,-2765.69 -6094.27,-3160.15 -323.55,-57.62 -629.37,163.99 -686.99,487.54 -53.19,327.98 163.99,633.8 491.97,691.42 2065.4,350.14 3949.08,1329.66 5447.17,2823.31 1498.08,1498.08 2473.16,3381.76 2823.31,5447.17 48.75,292.52 301.39,496.41 589.48,496.41 35.46,0 66.48,-4.43 101.94,-8.86 323.55,-48.77 545.16,-359.02 487.54,-682.57z"/>
   </g>
  </g>
  <g id="_2220173280544">
  </g>
  <g id="_2220173280224">
  </g>
  <g id="_2220173280576">
  </g>
  <g id="_2220173280480">
  </g>
  <g id="_2220173278560">
  </g>
  <g id="_2220173277824">
  </g>
  <g id="_2220173277664">
  </g>
  <g id="_2220173278304">
  </g>
  <g id="_2220173277600">
  </g>
  <g id="_2220173276928">
  </g>
  <g id="_2220173276288">
  </g>
  <g id="_2220173275744">
  </g>
  <g id="_2220173276416">
  </g>
  <g id="_2220173275616">
  </g>
  <g id="_2220173275264">
  </g>
 </g>
</svg>
