<?xml version="1.0" encoding="UTF-8"?>
<!DOCTYPE svg PUBLIC "-//W3C//DTD SVG 1.1//EN" "http://www.w3.org/Graphics/SVG/1.1/DTD/svg11.dtd">
<!-- Creator: CorelDRAW 2018 (64-Bit) -->
<svg xmlns="http://www.w3.org/2000/svg" xml:space="preserve" width="210mm" height="297mm" version="1.1" style="shape-rendering:geometricPrecision; text-rendering:geometricPrecision; image-rendering:optimizeQuality; fill-rule:evenodd; clip-rule:evenodd"
viewBox="0 0 21000 29700"
 xmlns:xlink="http://www.w3.org/1999/xlink">
 <defs>
  <style type="text/css">
   <![CDATA[
    .fil0 {fill:#FEFEFE}
   ]]>
  </style>
 </defs>
 <g id="Слой_x0020_1">
  <metadata id="CorelCorpID_0Corel-Layer"/>
  <g id="_2520994315152">
   <g>
    <path class="fil0" d="M15743.48 11398.04c-323.24,-340.84 -862.15,-355.85 -1203.52,-31.79l-5435.02 5154.4 -2592.35 -2661.63c-328.33,-336.86 -866.66,-344.24 -1203.81,-15.87 -336.86,328.04 -343.96,866.95 -15.91,1203.81l3178.38 3263.24c166.56,171.12 387.93,257.37 609.86,257.37 210.57,0 421.15,-77.77 586.03,-233.54l6044.6 -5732.43c341.08,-323.53 355.52,-862.43 31.74,-1203.56z"/>
   </g>
  </g>
  <g id="_2520994314928">
   <g>
    <path class="fil0" d="M10500 4350c-5789.77,0 -10500,4710.23 -10500,10500 0,5789.77 4710.23,10500 10500,10500 5789.77,0 10500,-4710.23 10500,-10500 0,-5789.77 -4710.23,-10500 -10500,-10500zm0 19297.32c-4850.71,0 -8797.32,-3946.28 -8797.32,-8797.32 0,-4850.71 3946.56,-8797.32 8797.32,-8797.32 4851,0 8797.32,3946.56 8797.32,8797.32 0,4851 -3946.32,8797.32 -8797.32,8797.32z"/>
   </g>
  </g>
  <g id="_2520994313776">
  </g>
  <g id="_2520994314736">
  </g>
  <g id="_2520994316720">
  </g>
  <g id="_2520994317456">
  </g>
  <g id="_2555472463248">
  </g>
  <g id="_2555472463856">
  </g>
  <g id="_2555472459536">
  </g>
  <g id="_2555472458960">
  </g>
  <g id="_2555472459728">
  </g>
  <g id="_2555472458832">
  </g>
  <g id="_2555472472368">
  </g>
  <g id="_2555472473904">
  </g>
  <g id="_2555472473520">
  </g>
  <g id="_2555472473104">
  </g>
  <g id="_2555472470864">
  </g>
 </g>
</svg>
